<svg xmlns="http://www.w3.org/2000/svg" width="31.749" height="28.029" viewBox="0 0 31.749 28.029"><defs><style>.a{fill:#4a2e18;}</style></defs><g transform="translate(24.912 -3170.907)"><path class="a" d="M6.837,3198.5a.883.883,0,0,1-.878.44c-2.521-.011-5.041-.005-7.562-.006-.651,0-.859-.206-.86-.849q0-4.943,0-9.887a6.5,6.5,0,0,0-1.215-3.892.485.485,0,0,0-.342-.183q-5.021-.015-10.042,0a.487.487,0,0,0-.339.188,6.527,6.527,0,0,0-1.21,3.894q.006,4.882,0,9.763c0,.866-.1.965-.954.965h-7.469c-.688,0-.877-.192-.877-.891,0-3.275-.01-6.55,0-9.826a15.641,15.641,0,0,1,5.35-12.011,15.382,15.382,0,0,1,5.714-3.257,1.321,1.321,0,0,0,.5-.29,6.191,6.191,0,0,1,8.624,0,1.387,1.387,0,0,0,.495.291,15.782,15.782,0,0,1,10.08,9.627,14.521,14.521,0,0,1,.93,4.249c.008.11.037.218.056.328Zm-10.913-18.117c0-1.087,0-2.148,0-3.21a4.8,4.8,0,0,0-1.737-3.815,4.708,4.708,0,0,0-4.982-.869,4.6,4.6,0,0,0-3.117,3.905,35.73,35.73,0,0,0-.083,3.741c0,.08.01.159.016.248Zm-15.563,12.807v-.4q0-2.324,0-4.648a10.537,10.537,0,0,1,.77-4.017,10.615,10.615,0,0,1,3.415-4.478c.089-.069.2-.179.207-.273.02-.562.01-1.124.01-1.706a.726.726,0,0,0-.119.043,11.784,11.784,0,0,0-5.684,8.69,43.511,43.511,0,0,0-.144,4.763.415.415,0,0,0,.089.25C-20.634,3191.984-20.165,3192.547-19.638,3193.186Zm21.205,0c.537-.652,1.016-1.23,1.489-1.814a.334.334,0,0,0,.058-.2c-.016-1.394.047-2.795-.071-4.18a11.83,11.83,0,0,0-4.655-8.521c-.373-.3-.783-.549-1.224-.856,0,.6.009,1.111,0,1.625a.467.467,0,0,0,.209.408,15.283,15.283,0,0,1,1.288,1.158,10.432,10.432,0,0,1,2.909,7.325C1.575,3189.784,1.567,3191.437,1.567,3193.187Zm-19.118,4.491-6.1-7.411v7.411Zm23.122,0v-7.4l-6.09,7.4Zm-22.483-1.178.064-.028v-.333q0-3.965,0-7.929a7.824,7.824,0,0,1,1.467-4.672.562.562,0,0,0,.137-.268c.012-.708.007-1.415.007-2.119-.04,0-.053-.01-.058-.006-.054.046-.11.093-.162.143a9.228,9.228,0,0,0-2.934,6.764c-.029,2.147-.007,4.294,0,6.443a.482.482,0,0,0,.074.286C-17.858,3195.358-17.383,3195.928-16.911,3196.5Zm15.688-.027.064.027c.432-.524.875-1.041,1.29-1.578a.928.928,0,0,0,.189-.521c.013-2.044,0-4.088.009-6.132a9.357,9.357,0,0,0-1.818-5.706c-.38-.517-.838-.976-1.261-1.462l-.083.046c0,.708,0,1.416.006,2.123a.493.493,0,0,0,.121.242A7.927,7.927,0,0,1-1.22,3188.3c-.011,2.612,0,5.225,0,7.836Zm-21.267-6.763.067-.023c0-.66-.017-1.32,0-1.979a13.151,13.151,0,0,1,1.948-6.6,13.459,13.459,0,0,1,5.034-4.793c.111-.061.253-.147.287-.252.148-.466.262-.942.393-1.433-.049.018-.087.028-.121.044-.308.146-.621.28-.92.44a14.619,14.619,0,0,0-6.332,6.46,14.44,14.44,0,0,0-1.531,6.351.413.413,0,0,0,.056.231C-23.239,3188.678-22.863,3189.193-22.49,3189.71Zm19.167-15.093c.128.455.229.874.366,1.28a.737.737,0,0,0,.286.391,13.776,13.776,0,0,1,2.978,2.2,13.235,13.235,0,0,1,3.809,7.048,19.041,19.041,0,0,1,.241,3.855c0,.1,0,.2,0,.305a15.063,15.063,0,0,0,1.094-1.431.745.745,0,0,0,.132-.45,27.507,27.507,0,0,0-.338-2.854,14.129,14.129,0,0,0-3.5-6.761A14.534,14.534,0,0,0-3.323,3174.617Zm-.766,7.036h-9.892v1.2h9.892Z" transform="translate(0 0)"/><path class="a" d="M-3.625,3207.611H.84c.631,0,.836.206.837.836,0,.7,0,1.406,0,2.108,0,.549-.225.774-.775.774q-4.557,0-9.114,0c-.55,0-.773-.225-.775-.774q0-1.085,0-2.17c0-.549.225-.773.775-.774C-6.683,3207.608-5.154,3207.611-3.625,3207.611Zm4.046,1.26H-7.723v1.2H.422Z" transform="translate(-5.38 -12.401)"/><path class="a" d="M-3.176,3204.026q-1.751,0-3.5,0c-.592,0-.809-.215-.81-.8q0-1.069,0-2.139c0-.55.226-.778.77-.779q3.566,0,7.13,0c.55,0,.777.225.779.77q0,1.085,0,2.17c0,.549-.226.777-.77.779C-.779,3204.028-1.977,3204.026-3.176,3204.026Zm3.112-2.459H-6.225v1.2H-.064Z" transform="translate(-5.886 -9.933)"/><path class="a" d="M-2.528,3196.441c-.775,0-1.55,0-2.325,0-.528,0-.76-.232-.763-.755,0-.744-.005-1.488,0-2.232a.644.644,0,0,1,.724-.731q2.371-.007,4.742,0a.644.644,0,0,1,.732.723q.009,1.131,0,2.262c0,.5-.244.73-.754.732C-.958,3196.443-1.743,3196.441-2.528,3196.441Zm-1.823-2.474v1.214h3.67v-1.214Z" transform="translate(-6.518 -7.37)"/><path class="a" d="M1.492,3181h-9.9c-.006-.089-.017-.169-.016-.249a35.72,35.72,0,0,1,.083-3.741,4.6,4.6,0,0,1,3.117-3.905,4.708,4.708,0,0,1,4.982.869,4.8,4.8,0,0,1,1.737,3.816C1.5,3178.852,1.492,3179.913,1.492,3181Z" transform="translate(-5.567 -0.621)"/><path class="a" d="M-17.736,3196.635c-.527-.639-1-1.2-1.457-1.771a.415.415,0,0,1-.089-.25,43.506,43.506,0,0,1,.144-4.762,11.784,11.784,0,0,1,5.684-8.69.719.719,0,0,1,.119-.044c0,.583.01,1.145-.01,1.706,0,.095-.117.2-.207.273a10.614,10.614,0,0,0-3.415,4.478,10.536,10.536,0,0,0-.77,4.017q0,2.324,0,4.648Z" transform="translate(-1.902 -3.45)"/><path class="a" d="M12.83,3196.61c0-1.75.007-3.4,0-5.055a10.432,10.432,0,0,0-2.909-7.325,15.283,15.283,0,0,0-1.288-1.158.467.467,0,0,1-.209-.408c.014-.515,0-1.03,0-1.625.441.307.85.56,1.224.856a11.83,11.83,0,0,1,4.655,8.521c.118,1.385.055,2.787.071,4.18a.334.334,0,0,1-.058.2C13.846,3195.38,13.367,3195.958,12.83,3196.61Z" transform="translate(-11.263 -3.423)"/><path class="a" d="M-16.907,3207.558H-23v-7.411Z" transform="translate(-0.644 -9.879)"/><path class="a" d="M18.018,3207.561h-6.09l6.09-7.4Z" transform="translate(-12.447 -9.883)"/><path class="a" d="M1.068,3209.515v1.2H-7.077v-1.2Z" transform="translate(-6.026 -13.045)"/><path class="a" d="M.582,3202.211v1.2H-5.579v-1.2Z" transform="translate(-6.532 -10.577)"/><path class="a" d="M-3.7,3194.6h3.67v1.214H-3.7Z" transform="translate(-7.166 -8.006)"/></g></svg>