<svg id="circle1" xmlns="http://www.w3.org/2000/svg" width="28.005" height="28" viewBox="0 0 28.005 28" style="fill:#fff;"><defs></defs><path  class="a" d="M-209.019,3219.266c.473-.465.949-.926,1.42-1.393.517-.513,1.03-1.03,1.527-1.528l2.375,2.376c-.037.04-.1.112-.168.18l-2.568,2.57c-.063.064-.12.134-.179.2h-.055c-.172-.183-.34-.371-.518-.548q-.913-.9-1.833-1.8Z" transform="translate(209.019 -3193.672)"/><path class="a" d="M-173.2,3184.059l-5.936-5.936c.024-.028.072-.091.127-.145q3.12-3.123,6.243-6.242a2.292,2.292,0,0,1,3.364-.019q1.336,1.312,2.647,2.648a2.28,2.28,0,0,1,.01,3.245q-3.176,3.2-6.375,6.381C-173.149,3184.022-173.185,3184.048-173.2,3184.059Z" transform="translate(194.074 -3170.991)"/><path class="a" d="M-198.224,3198.529l5.9-5.908,5.887,5.886-5.925,5.924c-.11-.122-.236-.274-.375-.415-.377-.383-.752-.769-1.143-1.138a.366.366,0,0,1-.1-.489c.521-1.182,1.023-2.372,1.532-3.559.035-.083.068-.167.129-.314-.131.05-.209.077-.286.109-1.2.516-2.409,1.03-3.61,1.553a.339.339,0,0,1-.448-.082C-197.174,3199.563-197.7,3199.048-198.224,3198.529Z" transform="translate(203.621 -3181.807)"/><path class="a" d="M-195.236,3210.4l-2.9,2.9-2.307-2.308,2.9-2.9Z" transform="translate(204.729 -3189.545)"/><path class="a" d="M-178,3194.868l-5.88-5.878,1.145-1.145,5.879,5.878Z" transform="translate(196.446 -3179.419)"/><path class="a" d="M-176.164,3216.43a3.329,3.329,0,0,1,.57-4.04,3.323,3.323,0,0,1,3.995-.524Z" transform="translate(192.811 -3191.208)"/><path class="a" d="M-168.582,3214.9a3.234,3.234,0,0,1-.5,3.958,3.255,3.255,0,0,1-4.049.6Z" transform="translate(191.073 -3192.949)"/></svg>