<svg xmlns="http://www.w3.org/2000/svg" width="42.759" height="56.029" viewBox="0 0 42.759 56.029"><defs><style>.a{fill:#4a2e18;}</style></defs><path class="a" d="M1411.112,2504.747c.4.1.807.194,1.206.305a8.2,8.2,0,0,1,6.027,7.833c.006.544,0,1.089,0,1.707.5,0,.967.012,1.434,0a1.775,1.775,0,0,1,1.782,1.1c1.024,2.074,2.081,4.132,3.1,6.209a2.772,2.772,0,0,1,.252,1.1c.034,1,.016,2.005.011,3.008a1.661,1.661,0,0,1-1.793,1.817q-6.44.006-12.88,0a1.654,1.654,0,0,1-1.769-1.786.545.545,0,0,0,0-.055,10.168,10.168,0,0,1,1.543-6.709,37.014,37.014,0,0,0,1.8-3.555,1.789,1.789,0,0,1,1.82-1.131c.452.017.9,0,1.366,0,.213-2.216-.072-4.2-1.986-5.609a4.679,4.679,0,0,0-2.806-.948c-3.361-.012-6.723-.02-10.084,0a4.759,4.759,0,0,0-4.448,3.248c.906.108,1.945-.238,2.606.71.554.8.238,1.687.321,2.568H1388.8a13.827,13.827,0,0,1,.02-1.987,1.545,1.545,0,0,1,1.573-1.263c.583-.015,1.167,0,1.718,0a21.366,21.366,0,0,1,.927-2.23,8.031,8.031,0,0,1,6.038-4.237,2.192,2.192,0,0,0,.308-.1Z" transform="translate(-1382.174 -2504.747)"/><path class="a" d="M1366.668,2612.683q0,8.091,0,16.182c0,1.362-.611,1.98-1.959,1.98h-19.12a1.7,1.7,0,0,1-1.94-1.944q0-16.209,0-32.418a1.7,1.7,0,0,1,1.931-1.952h19.175a1.689,1.689,0,0,1,1.913,1.915Q1366.669,2604.565,1366.668,2612.683Zm-10.914,1.645c-.1.235-.17.4-.248.555-.6,1.206-1.215,2.4-1.8,3.617a1.636,1.636,0,1,0,2.929,1.458c1.108-2.173,2.208-4.349,3.271-6.543a1.618,1.618,0,0,0-1.515-2.366c-.237-.006-.475,0-.712,0h-3.115c.1-.235.171-.4.248-.555.6-1.206,1.217-2.4,1.8-3.617a1.636,1.636,0,1,0-2.93-1.457c-1.106,2.173-2.189,4.358-3.278,6.54a1.542,1.542,0,0,0,.089,1.611,1.648,1.648,0,0,0,1.487.761C1353.214,2614.324,1354.448,2614.329,1355.754,2614.329Z" transform="translate(-1343.649 -2581.405)"/><path class="a" d="M1440.652,2691.617c0-1.69-.009-3.293,0-4.9a1.637,1.637,0,0,1,1.286-1.626,1.588,1.588,0,0,1,1.789.843,2.386,2.386,0,0,1,.2.945c.021,1.512.011,3.026.012,4.539a1.418,1.418,0,0,0,.021.152h3.239c.008-.161.023-.336.023-.511,0-1.422,0-2.844,0-4.265a1.645,1.645,0,1,1,3.284.01c.008,1.582,0,3.164,0,4.811.546,0,1.052-.006,1.557,0a1.64,1.64,0,0,1,1.728,1.714q.015,3.2,0,6.4a1.648,1.648,0,0,1-1.714,1.731.454.454,0,0,1-.055,0c-1.09-.121-1.974-.023-2.5,1.22a3.766,3.766,0,0,1-2.254,1.752c-.049,1.111-.024,2.192-.157,3.253a8.138,8.138,0,0,1-7.794,6.994c-3.488.05-6.979.059-10.467-.006a8.037,8.037,0,0,1-6.262-3.26h.683q7.7,0,15.4,0a4.986,4.986,0,0,0,5.28-5.228c.019-1.062.008-1.913-1.2-2.4a3.4,3.4,0,0,1-1.664-1.962.5.5,0,0,0-.567-.366c-.492.025-.986.016-1.479,0a1.629,1.629,0,0,1-1.68-1.65q-.023-3.281,0-6.562a1.622,1.622,0,0,1,1.647-1.626C1439.541,2691.606,1440.067,2691.617,1440.652,2691.617Z" transform="translate(-1411.054 -2658.693)"/></svg>