<svg xmlns="http://www.w3.org/2000/svg" width="28.009" height="23.335" viewBox="0 0 28.009 23.335"><defs><style>.a{fill:#4a2e18;}</style></defs><path class="a" d="M33.491,3303.124c-.206.56-.7.435-1.163.463v.34q0,2.912,0,5.824c0,.644-.184.826-.83.826s-1.294,0-1.941,0c-.525,0-.728-.2-.729-.727q0-2.953,0-5.906v-.345H10.15v.312q0,2.926,0,5.851c0,.639-.174.815-.806.816H7.457c-.618,0-.808-.194-.808-.822q0-2.912,0-5.824v-.358c-.209,0-.389.009-.568,0a.567.567,0,0,1-.589-.59q-.02-1.148,0-2.3c.007-.4.259-.605.717-.608.811,0,1.622,0,2.434,0h.322v-2.326h-.89c-.255,0-.511.009-.765,0a.6.6,0,0,1-.655-.646q-.021-1.107,0-2.215a.586.586,0,0,1,.658-.636c.545-.008,1.091,0,1.655,0v-1.175H8.113c-.274,0-.547.006-.82,0a.572.572,0,0,1-.635-.6c-.019-.765-.02-1.531,0-2.3.011-.4.259-.594.7-.6.528-.007,1.057,0,1.633,0,0-.216-.009-.421,0-.625a1.763,1.763,0,0,1,1.4-1.669,1.719,1.719,0,0,1,1.9.956,3.128,3.128,0,0,1,.187.816,3.316,3.316,0,0,1,0,.5h14c0-.107,0-.205,0-.3a1.768,1.768,0,1,1,3.5.013c-.005.09,0,.179,0,.308H30.6c.337,0,.675,0,1.012,0,.483.008.711.225.716.7q.012,1.052,0,2.105c-.005.481-.226.691-.712.7-.527,0-1.055,0-1.6,0v1.175c.517,0,1.025,0,1.533,0,.584,0,.782.2.783.791q0,.957,0,1.914c0,.583-.209.793-.786.8-.508,0-1.016,0-1.537,0v2.313c.1,0,.2.012.292.012.811,0,1.622,0,2.434,0a.7.7,0,0,1,.761.48Zm-7.017-3.06v-2.3H12.508v2.3ZM12.5,3294.227H26.471v-1.13H12.5Z" transform="translate(-5.482 -3287.243)"/></svg>