<svg xmlns="http://www.w3.org/2000/svg" width="28.353" height="28.349" viewBox="0 0 28.353 28.349"><defs><style>.a{fill:#4a2e18;}</style></defs><g transform="translate(173.914 -3041.021)"><path class="a" d="M220,3176.016q-1.032,1.019-2.065,2.039c-.32.316-.636.637-.937.94l-5.861-5.861c.038-.041.1-.108.16-.171q2.338-2.339,4.674-4.681a.582.582,0,0,1,.459-.187c1.19.008,2.381,0,3.571,0Z" transform="translate(-365.563 -127.074)"/><path class="a" d="M186.886,3206.074c-.158-.148-.31-.306-.476-.445q-5.454-4.586-10.912-9.167c-.531-.446-.545-.646-.054-1.134.064-.064.132-.125.215-.2l1.789,1.488q4.89,4.075,9.776,8.154a1.112,1.112,0,0,0,.852.3c.218-.019.438,0,.673,0v-1a.416.416,0,0,0-.136-.025,1.44,1.44,0,0,1-1.227-.462q-3.789-3.19-7.608-6.346a.326.326,0,0,1-.131-.411,6.607,6.607,0,0,0-.373-5,.287.287,0,0,1,.06-.4c.789-.776,1.566-1.563,2.372-2.371.325.333.636.644.938.965a.387.387,0,0,1,.082.223,4.736,4.736,0,0,0,.605,2.021.245.245,0,0,1-.051.354c-.7.692-1.4,1.392-2.1,2.092a1.522,1.522,0,0,0,.1,2.423q5.148,4.328,10.3,8.652c.1.086.19.19.285.285Z" transform="translate(-349 -136.705)"/><path class="a" d="M199.055,3211.212c-.864-.733-1.724-1.47-2.592-2.2q-4.479-3.766-8.962-7.528a.535.535,0,0,1-.047-.894c.1-.106.2-.219.312-.349.209.17.393.317.574.468q5.548,4.623,11.093,9.25a1.027,1.027,0,0,0,.7.25q3.75-.009,7.5,0h.325a.76.76,0,0,1-.327,1.006Z" transform="translate(-354.581 -141.843)"/><path class="a" d="M201.9,3197.98V3199h.943c.738,0,1.476.006,2.214,0,.183,0,.271.049.291.232.011.1.056.195.074.294a.626.626,0,0,0,.427.5c1.515.627,3.021,1.277,4.543,1.887a1.746,1.746,0,0,1,1.081,2.152h-.265c-2.454,0-4.909,0-7.363-.007a.8.8,0,0,1-.465-.174q-3.984-3.3-7.959-6.616a.351.351,0,0,1-.126-.443,6.643,6.643,0,0,0-.384-4.975.286.286,0,0,1,.058-.4c.789-.774,1.566-1.561,2.367-2.365.325.329.64.639.942.962a.459.459,0,0,1,.079.251,5.021,5.021,0,0,0,3.906,4.513,9.057,9.057,0,0,0,1.73.142c.231.008.328.067.362.294s.107.461.169.717h-3.116v1.014h.289c.941,0,1.882.006,2.824,0,.2,0,.3.055.33.263.038.243.114.48.182.756Z" transform="translate(-358.084 -136.711)"/><path class="a" d="M200.819,3183.746l4.83-4.832,5.823,5.822c-.035.038-.086.1-.143.154q-2.094,2.095-4.185,4.191a.626.626,0,0,1-.485.194,4.665,4.665,0,0,1-2.312-.437,3.991,3.991,0,0,1-2.241-3.475.9.9,0,0,0-.3-.651C201.466,3184.393,201.137,3184.058,200.819,3183.746Z" transform="translate(-360.822 -132.044)"/><path class="a" d="M190.4,3187.034a3.56,3.56,0,0,1-.411-1.588.937.937,0,0,0-.319-.729c-.337-.312-.657-.643-.961-.943l4.813-4.812,2.463,2.487Z" transform="translate(-355.26 -132.066)"/><path class="a" d="M199.037,3173.369l4.773-4.772,2.322,2.709-4.578,4.579Z" transform="translate(-360.003 -127.305)"/><path class="a" d="M189.653,3197.26l2.031-2.033a5.821,5.821,0,0,1,.317,3.986Z" transform="translate(-355.692 -139.539)"/><path class="a" d="M179.583,3195.278a5.693,5.693,0,0,1,.3,3.955l-2.318-1.931Z" transform="translate(-350.137 -139.562)"/></g></svg>