<svg xmlns="http://www.w3.org/2000/svg" width="33.402" height="29.691" viewBox="0 0 33.402 29.691"><defs><style>.a{fill:#3a3a3a;}</style></defs><path class="a" d="M2086.055-457.755a1.283,1.283,0,0,0-1.38-.842c-4.293.013-8.586.007-12.879.007-1,0-1.38.379-1.38,1.377q0,1.581,0,3.163c0,.876.4,1.285,1.27,1.286,4.369,0,8.739,0,13.108.007a1.236,1.236,0,0,0,1.261-.821Z" transform="translate(-2052.653 482.449)"/><path class="a" d="M2086.057-246.433a1.278,1.278,0,0,0-1.355-.83c-4.3.013-8.608.007-12.912.007-1,0-1.372.378-1.373,1.383q0,1.565,0,3.13c0,.911.4,1.316,1.311,1.316,4.326,0,8.651-.006,12.977.007a1.276,1.276,0,0,0,1.351-.838Z" transform="translate(-2052.656 255.21)"/><path class="a" d="M1960.161-141.463q-3.228,0-6.456,0c-.941,0-1.331.389-1.332,1.321q0,1.63,0,3.261a1.109,1.109,0,0,0,1.25,1.243q6.571,0,13.141,0a1.109,1.109,0,0,0,1.25-1.244q0-1.647,0-3.293c0-.888-.4-1.287-1.3-1.288Q1963.438-141.466,1960.161-141.463Z" transform="translate(-1943.493 141.465)"/><path class="a" d="M1842.16-452.706h6.489c.978,0,1.355-.381,1.355-1.366q0-1.581,0-3.163a1.13,1.13,0,0,0-1.3-1.3h-13.043c-.9,0-1.3.4-1.3,1.288q0,1.647,0,3.293a1.1,1.1,0,0,0,1.241,1.243Q1838.882-452.7,1842.16-452.706Z" transform="translate(-1834.363 482.392)"/><path class="a" d="M1960.205-347.022h6.457c.963,0,1.349-.384,1.349-1.339q0-1.614,0-3.228a1.116,1.116,0,0,0-1.266-1.261q-6.554,0-13.109,0a1.116,1.116,0,0,0-1.267,1.26q0,1.663,0,3.326a1.1,1.1,0,0,0,1.249,1.241Q1956.912-347.017,1960.205-347.022Z" transform="translate(-1943.488 368.755)"/><path class="a" d="M1842.192-247.188H1835.7c-.96,0-1.339.382-1.34,1.344q0,1.63,0,3.261a1.09,1.09,0,0,0,1.2,1.222q6.619.006,13.239,0a1.089,1.089,0,0,0,1.2-1.2c.008-1.13.006-2.261,0-3.391a1.1,1.1,0,0,0-1.256-1.237Q1845.469-247.192,1842.192-247.188Z" transform="translate(-1834.363 255.142)"/><path class="a" d="M1838.681-347.032c.695,0,1.39,0,2.085,0a1.089,1.089,0,0,0,1.229-1.221q.009-1.694,0-3.388a1.091,1.091,0,0,0-1.235-1.218q-2.1-.006-4.2,0a1.111,1.111,0,0,0-1.236,1.256q0,1.661,0,3.323a1.106,1.106,0,0,0,1.242,1.248C1837.269-347.028,1837.975-347.032,1838.681-347.032Z" transform="translate(-1835.248 368.765)"/><path class="a" d="M2191.881-352.872c-.7,0-1.39,0-2.085,0a1.092,1.092,0,0,0-1.236,1.217q-.01,1.694,0,3.388a1.087,1.087,0,0,0,1.228,1.222q2.1.008,4.2,0a1.1,1.1,0,0,0,1.243-1.246q0-1.661,0-3.323a1.119,1.119,0,0,0-1.268-1.259C2193.271-352.874,2192.576-352.872,2191.881-352.872Z" transform="translate(-2161.905 368.776)"/><path class="a" d="M1838.646-141.479c-.7,0-1.39,0-2.085,0a1.1,1.1,0,0,0-1.239,1.249q0,1.661,0,3.323a1.11,1.11,0,0,0,1.24,1.253q2.1.006,4.2,0a1.09,1.09,0,0,0,1.231-1.221q.01-1.694,0-3.388a1.089,1.089,0,0,0-1.232-1.217h-2.117Z" transform="translate(-1835.248 141.481)"/><path class="a" d="M2191.876-141.479c-.695,0-1.39,0-2.085,0a1.085,1.085,0,0,0-1.225,1.223q-.008,1.678,0,3.355a1.1,1.1,0,0,0,1.239,1.246q2.1.005,4.2,0a1.1,1.1,0,0,0,1.232-1.227q.005-1.678,0-3.355a1.1,1.1,0,0,0-1.246-1.242C2193.289-141.483,2192.583-141.479,2191.876-141.479Z" transform="translate(-2161.911 141.481)"/></svg>