<svg xmlns="http://www.w3.org/2000/svg" width="31.614" height="29.691" viewBox="0 0 31.614 29.691"><defs><style>.a{fill:#3a3a3a;}</style></defs><path class="a" d="M4212.194-453.813v-.123l.511-1.661,3.5.811a2.553,2.553,0,0,1,1.38-1.346,1.056,1.056,0,0,0,.741-.794,5.165,5.165,0,0,1,.214-.544c.147-.369.293-.738.447-1.126l1.715.686c-.244.622-.473,1.2-.693,1.764.019.035.021.047.029.053.058.042.116.084.176.122a2.692,2.692,0,0,1,1.224,1.745c.043.2.135.244.3.257,1.148.09,2.3.188,3.444.267a.38.38,0,0,0,.289-.178,2.984,2.984,0,0,1,1.329-1.329.523.523,0,0,0,.228-.257c.382-.964.752-1.933,1.127-2.9.028-.073.07-.141.112-.225l1.693.68-1.026,2.594a2.891,2.891,0,0,1,1.606,1.508.267.267,0,0,0,.215.112q1.783-.133,3.565-.292a.31.31,0,0,0,.208-.193,2.821,2.821,0,0,1,1.9-2.1.508.508,0,0,0,.261-.256c.242-.577.465-1.163.7-1.745.04-.1.088-.2.139-.31l1.7.683c-.24.612-.47,1.2-.708,1.808a3,3,0,0,1,1.207,1.19c.028.05.154.076.226.064.385-.068.768-.145,1.147-.233.728-.169,1.452-.348,2.205-.53.166.592.328,1.169.5,1.8-1.214.272-2.394.541-3.577.8a.426.426,0,0,0-.36.308,2.71,2.71,0,0,1-2.092,1.807c-.076.016-.15.047-.235.074a11.708,11.708,0,0,0,.667,3.357.505.505,0,0,0,.471.383,2.41,2.41,0,0,1,1.669,1.01.576.576,0,0,0,.753.259c.72-.2,1.45-.355,2.2-.534.165.591.327,1.169.5,1.785-.9.214-1.769.426-2.639.621a.383.383,0,0,0-.3.28,4.6,4.6,0,0,1-.591,1.1.91.91,0,0,0-.222.77,11.894,11.894,0,0,1-.119,3.837c-.08.409-.091.732.292.976a.382.382,0,0,1,.137.165c.156.369.415.351.748.26.719-.2,1.45-.354,2.2-.533.165.593.326,1.17.5,1.785-.9.214-1.77.426-2.64.621a.343.343,0,0,0-.3.285,2.75,2.75,0,0,1-3.009,2.05.314.314,0,0,0-.359.19c-.4.673-.8,1.341-1.2,2.01-.083.138-.168.274-.26.424l-1.582-.952c.5-.837.98-1.64,1.464-2.44.079-.13.135-.232.015-.381s-.192-.267-.433-.243c-1.524.153-3.05.285-4.577.409a.384.384,0,0,0-.385.259,2.535,2.535,0,0,1-2.157,1.623,1.09,1.09,0,0,0-.982.678c-.343.628-.73,1.231-1.111,1.863l-1.584-.952,1.346-2.25c-.222-.363-.437-.676-.608-1.012a.327.327,0,0,0-.325-.206c-.975-.065-1.948-.148-2.923-.207a.488.488,0,0,0-.345.16,2.741,2.741,0,0,1-2.455,1.028.4.4,0,0,0-.453.243c-.413.711-.84,1.413-1.264,2.118-.051.085-.11.164-.172.254l-1.571-.949c.442-.737.845-1.442,1.282-2.126.212-.333.368-.626.023-.96a.534.534,0,0,1-.121-.247c-.049-.2-.191-.258-.377-.295-.9-.176-1.793-.356-2.686-.549-.621-.134-1.237-.292-1.856-.439v-.123c.171-.555.342-1.109.516-1.672.077.015.137.026.2.039,1.291.293,2.582.588,3.873.875.136.03.275.1.381-.117a2.708,2.708,0,0,1,2.149-1.56c.154-.022.237-.072.248-.24.061-.91.138-1.819.191-2.729a5.442,5.442,0,0,0-.053-.744,2.857,2.857,0,0,1-2.631-1.79.523.523,0,0,0-.333-.2c-.833-.179-1.671-.332-2.5-.512-.681-.147-1.355-.321-2.033-.483v-.124l.513-1.667c.059.007.1.007.138.016,1.29.293,2.583.579,3.87.885a.394.394,0,0,0,.522-.244,3.377,3.377,0,0,1,.611-.763.33.33,0,0,0,.1-.421,13.794,13.794,0,0,1-.807-4.248.556.556,0,0,0-.172-.355,2.813,2.813,0,0,1-.855-1.258.355.355,0,0,0-.317-.274c-.474-.093-.946-.19-1.416-.3C4213.649-453.468,4212.923-453.643,4212.194-453.813Zm15.064,9.365c.038-.076.1-.218.178-.35a1.872,1.872,0,0,1,.26-.38.3.3,0,0,0,.05-.409,13.329,13.329,0,0,1-1.293-4.635.4.4,0,0,0-.129-.253,3.123,3.123,0,0,1-.913-1.186.342.342,0,0,0-.235-.173c-1.271-.112-2.542-.208-3.812-.317a.4.4,0,0,0-.41.182,2.675,2.675,0,0,1-1.677,1.066c-.087.017-.171.049-.259.074a11,11,0,0,0,.727,3.476.46.46,0,0,0,.3.234,2.759,2.759,0,0,1,2.344,2.266.255.255,0,0,0,.283.242c.729.045,1.455.131,2.185.157C4225.644-444.426,4226.435-444.448,4227.259-444.448Zm10.955,2.874a2.861,2.861,0,0,1-2.388-1.308.386.386,0,0,0-.306-.106c-.921.086-1.84.193-2.761.278a.3.3,0,0,0-.309.225,2.661,2.661,0,0,1-1.333,1.511.373.373,0,0,0-.239.4,12.086,12.086,0,0,1-.512,3.927,1.185,1.185,0,0,0,.151,1.291.463.463,0,0,0,.295.174q2.213-.173,4.425-.382a.351.351,0,0,0,.243-.2,2.8,2.8,0,0,1,2.373-2.1.293.293,0,0,0,.206-.161A10.776,10.776,0,0,0,4238.214-441.574Zm-9.671,4.6a11.156,11.156,0,0,0,.478-3.653c0-.081-.129-.19-.222-.232a2.748,2.748,0,0,1-1.454-1.4.412.412,0,0,0-.437-.27q-2.324-.121-4.646-.272a.823.823,0,0,0-.754.754,13.814,13.814,0,0,1-.161,4.477.423.423,0,0,0,.108.339,2.916,2.916,0,0,1,.945,1.654.328.328,0,0,0,.227.209c.828.075,1.66.126,2.489.2a.345.345,0,0,0,.4-.228,2.6,2.6,0,0,1,1.807-1.459A8.878,8.878,0,0,1,4228.543-436.972Zm-.162-12.871a.47.47,0,0,0,0,.13,11.857,11.857,0,0,0,.991,3.259.361.361,0,0,0,.39.247,2.7,2.7,0,0,1,2.512,1.438.339.339,0,0,0,.377.218c.858-.1,1.718-.171,2.575-.273a.382.382,0,0,0,.257-.224,3.092,3.092,0,0,1,.906-1.442.377.377,0,0,0,.085-.327,12.883,12.883,0,0,1-.774-3.851,1.154,1.154,0,0,0-.48-1.077.532.532,0,0,1-.178-.21c-.095-.191-.241-.209-.434-.192-1.259.108-2.52.2-3.779.315a.377.377,0,0,0-.255.189,2.534,2.534,0,0,1-.88,1.129A14.729,14.729,0,0,1,4228.381-449.843Zm2.394,6.422a.941.941,0,0,0-.9-.941.941.941,0,0,0-.947.9.929.929,0,0,0,.918.952A.93.93,0,0,0,4230.774-443.422Zm7.408-10.187a.937.937,0,0,0-.9-.942.938.938,0,0,0-.948.926.933.933,0,0,0,.917.923A.93.93,0,0,0,4238.183-453.609ZM4228-453.624a.938.938,0,0,0-.923.92.931.931,0,0,0,.911.929.932.932,0,0,0,.939-.932A.94.94,0,0,0,4228-453.624Zm11.113,18.521a.94.94,0,0,0-.918-.925.942.942,0,0,0-.931.914.928.928,0,0,0,.935.935A.926.926,0,0,0,4239.109-435.1Zm-10.187.923a.942.942,0,0,0-.922-.922.941.941,0,0,0-.927.948.927.927,0,0,0,.938.9A.927.927,0,0,0,4228.922-434.18Zm-9.26-19.443a.941.941,0,0,0-.917-.927.935.935,0,0,0-.932.91.927.927,0,0,0,.93.939A.934.934,0,0,0,4219.662-453.623Zm0,8.334a.936.936,0,0,0-.928.915.925.925,0,0,0,.9.934.931.931,0,0,0,.945-.926A.941.941,0,0,0,4219.666-445.289Zm18.531,1.849a.927.927,0,0,0,.912-.927.937.937,0,0,0-.921-.922.94.94,0,0,0-.929.946A.93.93,0,0,0,4238.2-443.44Zm-17.61,8.352a.944.944,0,0,0-.906-.94.94.94,0,0,0-.943.9.924.924,0,0,0,.919.949A.931.931,0,0,0,4220.587-435.089Z" transform="translate(-4212.194 458.597)"/></svg>