<svg xmlns="http://www.w3.org/2000/svg" width="27.582" height="29.691" viewBox="0 0 27.582 29.691"><defs><style>.a{fill:#3a3a3a;}</style></defs><g transform="translate(0 0)"><path class="a" d="M2446.785-458.6c.087.678.164,1.358.265,2.033.1.7.114.7.808.843a10.989,10.989,0,0,1,4.078,1.732.59.59,0,0,0,.84-.016c.6-.444,1.19-.89,1.762-1.318l1.61,1.586-1.293,1.724c-.3.4-.3.526-.025.929a11.023,11.023,0,0,1,1.75,4.219c.083.434.2.54.649.6.725.1,1.45.2,2.186.308v2.254l-1.479.221c-.277.041-.555.082-.833.117a.534.534,0,0,0-.507.474,11.022,11.022,0,0,1-1.8,4.411.556.556,0,0,0,.023.766c.45.6.9,1.2,1.342,1.786l-1.6,1.6c-.478-.357-.99-.734-1.494-1.122a.423.423,0,0,1-.113-.223c-.205-.783-.4-1.57-.61-2.351a.54.54,0,0,0-.979-.229c-.4.433-.787.878-1.187,1.31a1.432,1.432,0,0,1-1.114.533.9.9,0,0,1-.83-.491c-.149-.29-.109-.372.186-.491a7.831,7.831,0,0,0,4.952-5.644,7.924,7.924,0,0,0-6.616-9.66,7.929,7.929,0,0,0-9,6.727,7.747,7.747,0,0,0,2.145,6.649,1.092,1.092,0,0,0,.174.138c-.417.769-.818,1.48-1.189,2.207a4.209,4.209,0,0,0-.363.973,1.154,1.154,0,0,1-.522.721c-.441.311-.867.645-1.274.95l-1.6-1.6,1.274-1.7c.3-.4.3-.528.026-.93a10.968,10.968,0,0,1-1.756-4.247c-.075-.394-.181-.5-.586-.559-.65-.1-1.3-.187-1.951-.281-.094-.014-.188-.035-.292-.055v-2.243l1.65-.249c.229-.035.458-.072.688-.106a.529.529,0,0,0,.478-.471,10.89,10.89,0,0,1,1.821-4.4.54.54,0,0,0-.022-.764c-.45-.6-.9-1.2-1.336-1.779l1.6-1.607c.573.431,1.18.891,1.791,1.347a.552.552,0,0,0,.767.023,11.138,11.138,0,0,1,4.3-1.8c.459-.088.551-.2.613-.669q.143-1.089.285-2.177Zm-11.25,13.51c0,.068,0,.135,0,.2a.551.551,0,0,0,.514.59.544.544,0,0,0,.551-.552c.008-.086,0-.175.01-.26a14.76,14.76,0,0,1,.3-2.026,8.834,8.834,0,0,1,6.463-6.415,1.031,1.031,0,0,0,.473-.288.435.435,0,0,0-.025-.564.578.578,0,0,0-.68-.171A10.027,10.027,0,0,0,2435.536-445.087Zm10.613-9.264a.528.528,0,0,0-.523-.536.527.527,0,0,0-.526.532.515.515,0,0,0,.509.516A.517.517,0,0,0,2446.149-454.351Z" transform="translate(-2431.833 458.597)"/><path class="a" d="M2543.188-270.834a6.206,6.206,0,0,1,.263,4,4.911,4.911,0,0,1-2.835,3.148,8.228,8.228,0,0,1-6.3.328,4.861,4.861,0,0,1-3.1-6.268,10.7,10.7,0,0,1,3.321-4.794c.238-.212.478-.424.7-.647a4.093,4.093,0,0,0,1.227-2.853c.016-.372,0-.746,0-1.145.077.027.108.029.125.045.753.763,1.521,1.514,2.249,2.3a4.987,4.987,0,0,1,.714,1.049,2.5,2.5,0,0,1-.117,2.688,5.941,5.941,0,0,0-.472.861,1.844,1.844,0,0,0,.283,2.132,2.032,2.032,0,0,0,2.182.55,2.647,2.647,0,0,0,1.266-.833Zm-11.224,2.819c.043.293.066.612.14.919a3.581,3.581,0,0,0,1.638,2.292,5.846,5.846,0,0,0,3.324.819.5.5,0,0,0,.455-.516.527.527,0,0,0-.458-.516c-.1-.018-.212-.01-.317-.024a11.248,11.248,0,0,1-1.371-.2,2.757,2.757,0,0,1-2.283-2.319,5.033,5.033,0,0,1,.038-1.147.535.535,0,0,0-.42-.649.523.523,0,0,0-.626.457C2532.027-268.618,2532-268.329,2531.963-268.015Z" transform="translate(-2523.5 292.577)"/></g></svg>