<svg xmlns="http://www.w3.org/2000/svg" width="46" height="45.999" viewBox="0 0 46 45.999"><defs><style>.a{fill:#fff;}</style></defs><path class="a" d="M4100.932,569.764V558.576h8.833a7.487,7.487,0,0,1-.013-6.758h-8.792v-3.474c5.707-.246,9.319-3.118,10.861-8.668l6.188,2.561c-.769,1.859-1.528,3.7-2.318,5.611a7.554,7.554,0,0,1,6.218,2.6c.788-1.9,1.553-3.74,2.335-5.622l11.887,4.921,2.063-4.985-30.005-12.427c-.69,1.662-1.368,3.3-2.065,4.976l3.043,1.273a7.877,7.877,0,0,1-8.235,6.984v-7.422h-2.7v31.624Z" transform="translate(-4098.236 -523.764)"/><path class="a" d="M4033.479,437q-1.147,2.8-2.295,5.6c-.061.148-.115.3-.184.482l32.467,13.449c.071-.153.142-.293.2-.437q1.068-2.566,2.134-5.133c.056-.135.133-.261.2-.391v-.09c-.136-.061-.271-.125-.408-.182q-13.121-5.436-26.242-10.872c-1.93-.8-3.855-1.614-5.782-2.422Z" transform="translate(-4020.002 -437)"/><path class="a" d="M4290.155,739.63a4.659,4.659,0,1,0,4.651-4.582A4.7,4.7,0,0,0,4290.155,739.63Z" transform="translate(-4276.757 -708.271)"/></svg>