<svg xmlns="http://www.w3.org/2000/svg" width="28.846" height="28.841" viewBox="0 0 28.846 28.841"><defs><style>.a{fill:#3a3a3a;}</style></defs><path class="a" d="M1366-398.617a1,1,0,0,1,1.077-.671q13.352.011,26.7.005c.758,0,1.064.3,1.065,1.052,0,.844,0,1.688,0,2.575h-28.454c-.13,0-.26.015-.391.024Z" transform="translate(-1366 402.901)"/><path class="a" d="M1378.159-243.11a4.121,4.121,0,0,1-1.721-.716,3.349,3.349,0,0,1-1.417-2.693c-.027-3.687-.011-7.375-.011-11.062a.736.736,0,0,1,.017-.1h7.107v.337q0,5.222,0,10.443a3.551,3.551,0,0,1-3.056,3.755.306.306,0,0,0-.073.038Z" transform="translate(-1374.328 271.951)"/><path class="a" d="M1648.717-243.2a4.316,4.316,0,0,1-1.555-.611,3.468,3.468,0,0,1-1.57-2.957c-.01-3.6,0-7.206,0-10.809a2.054,2.054,0,0,1,.021-.2h7.1v.306q0,5.278,0,10.556a3.551,3.551,0,0,1-3.047,3.679.589.589,0,0,0-.1.041Z" transform="translate(-1624.548 272.042)"/><path class="a" d="M1513.452-243.14a8.014,8.014,0,0,1-1.133-.389,3.32,3.32,0,0,1-1.96-3.054c-.031-3.659-.011-7.318-.012-10.978,0-.046.006-.091.011-.155h7.1v.324c0,3.49-.035,6.981.013,10.471a3.621,3.621,0,0,1-3.047,3.741c-.025,0-.047.026-.071.04Z" transform="translate(-1499.481 271.981)"/><path class="a" d="M1366-328.545c.093-.008.185-.023.278-.024h8.215v1.014c0,.544,0,1.088,0,1.632a.876.876,0,0,1-.974.975c-2.148,0-4.3-.007-6.446.006a1,1,0,0,1-1.072-.674Z" transform="translate(-1366 337.503)"/><path class="a" d="M1416.551-445.381h-25.006c.038-.11.061-.2.1-.291a2.587,2.587,0,0,1,2.485-1.621c2.788-.013,5.576,0,8.364,0q5.717,0,11.434,0a2.607,2.607,0,0,1,2.481,1.544C1416.463-445.646,1416.5-445.529,1416.551-445.381Z" transform="translate(-1389.623 447.301)"/><path class="a" d="M1644.949-328.3c0,.954.013,1.882-.006,2.809a.84.84,0,0,1-.92.792q-2.252,0-4.5,0c-.7,0-1.407,0-2.111,0a.867.867,0,0,1-.949-.943c-.005-.816,0-1.632,0-2.448,0-.064.011-.127.019-.21Z" transform="translate(-1616.108 337.255)"/><path class="a" d="M1501.375-328.345h8.471v1.05c0,.544,0,1.089,0,1.633a.846.846,0,0,1-.907.921q-3.337.006-6.674,0a.81.81,0,0,1-.881-.735C1501.359-326.423,1501.375-327.369,1501.375-328.345Z" transform="translate(-1491.184 337.296)"/></svg>