<svg xmlns="http://www.w3.org/2000/svg" width="27.175" height="28.353" viewBox="0 0 27.175 28.353"><defs><style>.a{fill:#3a3a3a;}</style></defs><path class="a" d="M3754.334,211a18.491,18.491,0,0,1,3.395,1.954,17.2,17.2,0,0,1,5.782,7.448.858.858,0,0,1-.194,1.037.764.764,0,0,1-.948.076,1.412,1.412,0,0,1-.42-.558,15.52,15.52,0,0,0-8.112-8.346.827.827,0,0,1-.534-.745.8.8,0,0,1,.4-.743,2.47,2.47,0,0,1,.245-.123Z" transform="translate(-3736.531 -211)"/><path class="a" d="M3722.211,379.01c0,.85,0,1.7,0,2.549a7.763,7.763,0,0,1-6.326,7.673,4.259,4.259,0,0,1-2.42-.4,7.705,7.705,0,0,1-4.964-7.23c-.021-1.874-.006-3.749,0-5.624a.841.841,0,0,1,.663-.927c1.928-.685,3.858-1.366,5.784-2.058a1.166,1.166,0,0,1,.832,0c1.918.687,3.839,1.365,5.757,2.049a.853.853,0,0,1,.678.973Q3722.212,377.515,3722.211,379.01Zm-6.984,2.34c-.246-.26-.459-.5-.691-.726a.83.83,0,1,0-1.175,1.17q.627.645,1.271,1.272a.818.818,0,0,0,1.211,0q1.211-1.2,2.4-2.41a.993.993,0,0,0,.241-.452.779.779,0,0,0-.415-.882.8.8,0,0,0-.989.161C3716.475,380.088,3715.874,380.7,3715.227,381.351Z" transform="translate(-3695.036 -360.933)"/><path class="a" d="M3551.188,244.778c-.689-.244-1.324-.461-1.951-.7-.09-.034-.155-.17-.205-.271a12.421,12.421,0,0,0-20.188-3.391c-.059.058-.115.12-.169.182a.78.78,0,0,0,.007,1.115.81.81,0,0,0,1.167,0,20.1,20.1,0,0,1,1.571-1.4A10.7,10.7,0,0,1,3546.9,243.3c.029.046.052.1.066.123-.468.15-.932.287-1.386.45a.275.275,0,0,1-.381-.127,8.657,8.657,0,0,0-4.353-3.32,8.874,8.874,0,0,0-9.52,2.169,3.071,3.071,0,0,1-1.753,1.018,2.575,2.575,0,0,1-2.474-1.254,2.382,2.382,0,0,1,.244-2.744,13.21,13.21,0,0,1,3.734-2.96,14.067,14.067,0,0,1,20,7.78C3551.1,244.526,3551.136,244.621,3551.188,244.778Z" transform="translate(-3526.773 -233.173)"/><path class="a" d="M3588.271,327.107c-.528.19-1.019.376-1.518.535a.381.381,0,0,1-.293-.121,5.875,5.875,0,0,0-3.185-1.663,5.778,5.778,0,0,0-6.6,4.609,9.315,9.315,0,0,0-.108,1.432c-.015,1.107,0,2.215,0,3.323a.81.81,0,0,1-.521.805.746.746,0,0,1-.885-.191,1.01,1.01,0,0,1-.244-.565c-.007-1.467-.054-2.939.042-4.4a7.409,7.409,0,0,1,13.2-3.927C3588.188,326.986,3588.218,327.033,3588.271,327.107Z" transform="translate(-3571.336 -315.755)"/><path class="a" d="M3626.413,370.466a2.6,2.6,0,0,0-1.312,1.1,2.491,2.491,0,0,0-1.761-.192,2.445,2.445,0,0,0-1.819,2.423c-.005,2.124,0,4.247,0,6.371,0,1.108,0,2.216,0,3.324a.817.817,0,0,1-.749.82.834.834,0,0,1-.886-.671,1.616,1.616,0,0,1-.022-.33q0-1.884,0-3.767c0-1.93-.006-3.859,0-5.789a4.088,4.088,0,0,1,3.29-4.039,3.98,3.98,0,0,1,3.091.613C3626.291,370.362,3626.335,370.4,3626.413,370.466Z" transform="translate(-3612.964 -357.884)"/><path class="a" d="M3665.688,414.464c0,1.411,0,2.823,0,4.234a.82.82,0,0,1-1.212.764.878.878,0,0,1-.45-.855q0-3.473,0-6.946c0-.461,0-.923,0-1.384a.848.848,0,0,1,.838-.907.832.832,0,0,1,.823.915Q3665.691,412.374,3665.688,414.464Z" transform="translate(-3653.864 -394.685)"/></svg>