<svg xmlns="http://www.w3.org/2000/svg" width="29.691" height="29.691" viewBox="0 0 29.691 29.691"><defs><style>.a{fill:#3a3a3a;}</style></defs><path class="a" d="M3837.735-184.913a1.088,1.088,0,0,1-1.14.646c-1.507-.023-3.015-.008-4.523-.008h-.339c-.193-1.549-.384-3.077-.577-4.625.117-.006.2-.014.287-.014,1.7,0,3.4,0,5.1-.005.214,0,.294.06.344.272.232.986.485,1.967.733,2.95.028.109.074.214.112.321Z" transform="translate(-3808.044 209.211)"/><path class="a" d="M3711.126-458.6a1.068,1.068,0,0,1,.644,1.165c-.028.391-.005.786-.005,1.177h-1.707c0-.553-.027-1.126.01-1.694.022-.334.321-.5.595-.649Z" transform="translate(-3696.049 458.597)"/><g transform="translate(0 2.546)"><path class="a" d="M3633.272-100.915a.721.721,0,0,0-.088-.062.883.883,0,0,1-.531-.987.883.883,0,0,1,.913-.69c.713,0,1.427,0,2.166,0,.107-.424.212-.84.319-1.264h6.5l.317,1.264c.724,0,1.446,0,2.167,0a.876.876,0,0,1,.8.425.86.86,0,0,1-.293,1.187c-.072.044-.144.086-.216.129Z" transform="translate(-3624.458 128.061)"/><path class="a" d="M3524-185.278c.192-.725.386-1.449.576-2.174.1-.392.189-.788.3-1.178a.287.287,0,0,1,.2-.178c1.807-.008,3.615,0,5.422,0,.017,0,.034.015.081.037L3530-184.19c-.108,0-.21.013-.312.013-1.517,0-3.035-.015-4.552.009a1.089,1.089,0,0,1-1.14-.646Z" transform="translate(-3524 206.567)"/><path class="a" d="M3653.512-397h-4.291a.922.922,0,0,1-1.062-.836,5.51,5.51,0,0,1,4.675-6.654,5.5,5.5,0,0,1,6.2,5.693,5.944,5.944,0,0,1-.157,1.057.854.854,0,0,1-.928.738Q3655.73-397,3653.512-397Z" transform="translate(-3638.688 406.056)"/><path class="a" d="M3627.112-184.058l.576-4.6h5.627v4.6Z" transform="translate(-3619.353 206.427)"/><path class="a" d="M3733.018-184.032v-4.6h5.629c.191,1.525.383,3.054.577,4.6Z" transform="translate(-3717.291 206.403)"/><path class="a" d="M3548.06-273.62c-.192,1.541-.383,3.069-.576,4.607h-5.443c.127-.512.252-1.012.376-1.512.2-.8.392-1.591.594-2.385a.866.866,0,0,1,.884-.727c1.333-.006,2.665,0,4,0C3547.939-273.638,3547.986-273.628,3548.06-273.62Z" transform="translate(-3540.684 285.011)"/><path class="a" d="M3826.549-269.007h-5.427c-.192-1.529-.383-3.057-.578-4.611.1-.006.185-.015.268-.015q1.9,0,3.795,0a.894.894,0,0,1,1,.77q.455,1.809.907,3.619C3826.528-269.172,3826.535-269.1,3826.549-269.007Z" transform="translate(-3798.231 285.006)"/><path class="a" d="M3638.309-273.468h4.829v4.6h-5.4C3637.927-270.4,3638.117-271.922,3638.309-273.468Z" transform="translate(-3629.178 284.852)"/><path class="a" d="M3733.032-268.817v-4.609h4.831l.575,4.609Z" transform="translate(-3717.304 284.813)"/><path class="a" d="M3630.354-423.5l-1.18,1.156c-.333-.311-.76-.657-1.122-1.062a.817.817,0,0,1,.108-1.126.849.849,0,0,1,1.159-.015C3629.693-424.2,3630.038-423.821,3630.354-423.5Z" transform="translate(-3620.058 424.766)"/><path class="a" d="M3783.073-422.288l-1.2-1.219c.3-.3.646-.682,1.021-1.028a.852.852,0,0,1,1.18.026.853.853,0,0,1,.031,1.2C3783.766-422.941,3783.395-422.6,3783.073-422.288Z" transform="translate(-3762.471 424.761)"/><path class="a" d="M3817.321-341.209v-1.709c.538,0,1.095-.036,1.645.012a.824.824,0,0,1,.7.865.832.832,0,0,1-.716.823C3818.4-341.178,3817.856-341.209,3817.321-341.209Z" transform="translate(-3795.25 349.089)"/><path class="a" d="M3596.482-342.989v1.706c-.544,0-1.111.041-1.669-.013a.811.811,0,0,1-.672-.881.84.84,0,0,1,.739-.8C3595.415-343.015,3595.954-342.989,3596.482-342.989Z" transform="translate(-3588.862 349.151)"/></g></svg>