<svg xmlns="http://www.w3.org/2000/svg" width="28.009" height="28.349" viewBox="0 0 28.009 28.349"><defs><style>.a{fill:#4a2e18;}</style></defs><g transform="translate(301.668 -3041)"><path class="a" d="M54.6,3207.463a1.67,1.67,0,0,1-.128-.54,11.2,11.2,0,0,1,.86-2.817.9.9,0,0,1,.272-.3,1.2,1.2,0,0,1,.264-.149,5.1,5.1,0,0,0,1.864-1.125c.3.306.582.58.845.875.167.187.287.17.444-.008.256-.289.529-.562.825-.873a5.624,5.624,0,0,0,1.987,1.187.9.9,0,0,1,.5.558c.257.834.534,1.663.762,2.505a1.948,1.948,0,0,1-.078.687Z" transform="translate(-351.286 -138.114)"/><path class="a" d="M68.777,3207.473a1.157,1.157,0,0,1-.026-1.015c.228-.776.495-1.542.769-2.3a.908.908,0,0,1,.326-.356,2.433,2.433,0,0,1,.441-.227,4.33,4.33,0,0,0,1.635-1.015c.3.3.584.565.85.854.162.175.279.194.445.006.256-.291.531-.563.774-.817.073.007.1,0,.107.011a5.361,5.361,0,0,0,1.779,1.032,1.14,1.14,0,0,1,.709.751c.239.839.508,1.67.728,2.514.043.167-.075.376-.119.565Z" transform="translate(-355.83 -138.124)"/><path class="a" d="M61.771,3181.763H49.342c-.522,0-.578-.054-.578-.565q0-6.282,0-12.565c0-.493.067-.559.561-.559h24.94c.5,0,.565.067.565.554v12.593c0,.479-.065.542-.547.542Zm3.923-6.84a3.9,3.9,0,1,0-3.914,3.9A3.907,3.907,0,0,0,65.694,3174.923Z" transform="translate(-349.459 -127.074)"/><path class="a" d="M77.872,3200.8a4.6,4.6,0,0,0,1.055-2.725.27.27,0,0,1,.056-.173c.242-.2.493-.381.774-.6.287.3.578.591.859.894.122.131.217.135.34,0,.281-.3.571-.6.883-.927a5.409,5.409,0,0,0,1.958,1.173.944.944,0,0,1,.535.595c.254.843.516,1.685.768,2.53a1,1,0,0,1,.024.328.292.292,0,0,1-.334.313c-1.53,0-3.06,0-4.59-.008a.484.484,0,0,1-.258-.149,4.456,4.456,0,0,0-.607-.542c-.372-.218-.779-.374-1.17-.558C78.076,3200.91,77.991,3200.859,77.872,3200.8Z" transform="translate(-358.787 -136.43)"/><path class="a" d="M54.537,3200.836c-.423.2-.822.383-1.225.565a1.689,1.689,0,0,0-.815.677.322.322,0,0,1-.243.122q-2.284.011-4.568,0c-.279,0-.387-.1-.347-.4a8.2,8.2,0,0,1,.264-1.267,14.893,14.893,0,0,1,.562-1.558,1.991,1.991,0,0,1,.419-.484.4.4,0,0,1,.12-.067,5.343,5.343,0,0,0,1.922-1.159c.289.306.561.579.814.869.164.188.286.213.462.009.253-.292.532-.562.8-.843.279.213.532.4.771.6a.352.352,0,0,1,.07.224,4.7,4.7,0,0,0,.616,2.158C54.27,3200.456,54.4,3200.627,54.537,3200.836Z" transform="translate(-349 -136.428)"/><path class="a" d="M83.428,3191.724a3.64,3.64,0,0,1-1.373,2.968,1.671,1.671,0,0,1-2.281-.184,3.327,3.327,0,0,1-.991-2.189,5.55,5.55,0,0,1,.051-1.4,1.654,1.654,0,0,1,1.3-1.356,3.623,3.623,0,0,1,1.857-.009,1.805,1.805,0,0,1,1.384,1.608C83.4,3191.348,83.409,3191.533,83.428,3191.724Z" transform="translate(-359.072 -133.921)"/><path class="a" d="M54.969,3191.677a3.868,3.868,0,0,1-1.013,2.711,1.79,1.79,0,0,1-2.977-.279,3.944,3.944,0,0,1-.6-3.243,1.657,1.657,0,0,1,1.215-1.277,3.461,3.461,0,0,1,1.8-.058,1.788,1.788,0,0,1,1.515,1.607C54.945,3191.329,54.954,3191.522,54.969,3191.677Z" transform="translate(-349.941 -133.92)"/><path class="a" d="M76.294,3196.991a3.814,3.814,0,0,1-.994,2.636,1.789,1.789,0,0,1-2.966-.226,3.9,3.9,0,0,1-.678-2.993,1.751,1.751,0,0,1,1.6-1.644,3.361,3.361,0,0,1,1.773.1,1.812,1.812,0,0,1,1.232,1.646C76.281,3196.673,76.284,3196.84,76.294,3196.991Z" transform="translate(-356.777 -135.603)"/><path class="a" d="M59.744,3194.618a11.06,11.06,0,0,1,1.2.286,1.577,1.577,0,0,1,1.038,1.263,3.74,3.74,0,0,1-.9,3.438,1.788,1.788,0,0,1-2.993-.278,4.012,4.012,0,0,1-.6-3.22,1.864,1.864,0,0,1,1.8-1.411c.147-.012.295-.014.442-.021Z" transform="translate(-352.221 -135.58)"/><path class="a" d="M64.419,3191.736a10.055,10.055,0,0,1,.261-1.146,1.6,1.6,0,0,1,1.133-1,3.569,3.569,0,0,1,1.8-.05,1.742,1.742,0,0,1,1.471,1.517,3.76,3.76,0,0,1-.911,3.31,1.813,1.813,0,0,1-3.046-.311A4.6,4.6,0,0,1,64.419,3191.736Z" transform="translate(-354.476 -133.922)"/><path class="a" d="M63.774,3200.861c.265-.556.544-1.062.748-1.6a4.946,4.946,0,0,0,.2-1.08.411.411,0,0,1,.2-.357,6.135,6.135,0,0,0,.636-.515c.268.274.55.537.8.826.19.22.325.2.5-.008.246-.285.516-.549.773-.818.287.22.536.406.779.6a.21.21,0,0,1,.063.144,4.538,4.538,0,0,0,1,2.79c-.367.168-.706.326-1.047.48a1.911,1.911,0,0,0-1.023.8.282.282,0,0,1-.207.091c-.23.012-.461,0-.69.005-.378.014-.714.031-.954-.392-.124-.217-.45-.331-.7-.46C64.485,3201.178,64.1,3201.013,63.774,3200.861Z" transform="translate(-354.269 -136.444)"/><path class="a" d="M66.552,3177.139c0-.58-.007-1.161.006-1.74a.421.421,0,0,1,.135-.321.405.405,0,0,1,.338.077c.775.578,1.541,1.166,2.307,1.756.223.171.228.321.01.49q-1.169.9-2.35,1.791a.346.346,0,0,1-.3.063.4.4,0,0,1-.145-.293C66.545,3178.354,66.552,3177.746,66.552,3177.139Z" transform="translate(-355.158 -129.313)"/></g></svg>