<svg xmlns="http://www.w3.org/2000/svg" width="29.294" height="28.349" viewBox="0 0 29.294 28.349"><defs><style>.a{fill:#4a2e18;}</style></defs><g transform="translate(238.868 -3042.084)"><path class="a" d="M167.552,3224.7a.982.982,0,0,1-1.148.272.473.473,0,0,1-.051-.844.965.965,0,0,1,1.2.285Z" transform="translate(-377.126 -154.638)"/><path class="a" d="M139.48,3181.846q0,5.981,0,11.961c0,.6-.132.733-.745.733H121.681c-.6,0-.744-.145-.745-.741V3169.9c0-.6.144-.747.739-.747h17.083c.584,0,.722.139.722.726Q139.481,3175.865,139.48,3181.846Zm-5.358-3.416c-.62,0-1.239,0-1.859,0-.4,0-.588.2-.576.579a2.3,2.3,0,0,0,.473,1.353,2.429,2.429,0,0,0,4.378-1.228c.057-.482-.132-.7-.615-.7C135.323,3178.427,134.723,3178.43,134.123,3178.43Zm-7.812,10.745c-.629,0-1.258,0-1.887,0a.489.489,0,0,0-.55.518,2.239,2.239,0,0,0,.056.482,2.43,2.43,0,0,0,4.8-.336c.043-.48-.123-.663-.614-.665C127.511,3189.172,126.91,3189.174,126.31,3189.174Zm9.269-.972c-.333,0-.667-.01-1,0a.945.945,0,0,0-.943.948c-.01.324-.008.648,0,.971a.961.961,0,0,0,.964,1c.656.018,1.315.018,1.971,0a.962.962,0,0,0,.96-1c.006-.315.007-.629,0-.943a.951.951,0,0,0-.95-.972C136.246,3188.192,135.912,3188.2,135.579,3188.2Zm-10.26-4.9c.343,0,.686.014,1.028,0a.948.948,0,0,0,.935-.96c.01-.314.008-.628,0-.942a.958.958,0,0,0-.95-1.008c-.666-.025-1.334-.025-2,0a.951.951,0,0,0-.947,1.008c-.005.314-.007.628,0,.942a.942.942,0,0,0,.931.96C124.652,3183.317,124.986,3183.3,125.319,3183.3Zm9.767-9.271v0c.352,0,.705.014,1.056,0a.9.9,0,0,0,.878-.822,7.57,7.57,0,0,0,.012-1.168.933.933,0,0,0-.947-.918c-.666-.021-1.333-.021-2,0a.93.93,0,0,0-.934.9,6.854,6.854,0,0,0,0,1.112.932.932,0,0,0,.961.9C134.438,3174.043,134.762,3174.033,135.086,3174.033Zm-4.37,10.255h-1.371c-.527.017-.737.378-.471.828q.676,1.143,1.367,2.276a.5.5,0,0,0,.924,0q.69-1.135,1.366-2.277c.268-.455.062-.814-.471-.824C131.612,3184.282,131.164,3184.289,130.716,3184.289Zm-4.392-11.23c-.457,0-.915-.006-1.372,0-.527.009-.738.378-.472.829q.676,1.144,1.368,2.278a.5.5,0,0,0,.922,0q.692-1.135,1.367-2.278c.268-.453.059-.821-.469-.83C127.22,3173.053,126.772,3173.059,126.324,3173.059Zm-3.436,2.7c0-.542,0-1.085,0-1.628,0-.365-.191-.58-.49-.575a.5.5,0,0,0-.482.561q-.01,1.627,0,3.255a.5.5,0,0,0,.482.56c.3,0,.486-.21.489-.575C122.891,3176.828,122.888,3176.3,122.888,3175.762Zm2.21,10.965c.372,0,.744,0,1.116,0s.578-.192.572-.494-.213-.475-.563-.478q-1.13-.008-2.26,0c-.36,0-.578.2-.573.5s.216.47.564.474C124.335,3186.73,124.717,3186.727,125.1,3186.727Zm2.443-15.62c.38,0,.76,0,1.141,0a.488.488,0,1,0,.018-.97q-1.169-.015-2.338,0a.487.487,0,1,0,.01.969C126.762,3171.112,127.152,3171.107,127.541,3171.107Zm4.4,20.994c-.39,0-.779,0-1.169,0a.49.49,0,1,0,0,.97c.77.006,1.54.007,2.31,0a.488.488,0,1,0,0-.969C132.7,3192.1,132.322,3192.1,131.942,3192.1Zm1.675-15.621c.315,0,.63.007.944,0a.486.486,0,1,0-.005-.969q-.93-.011-1.86,0a.487.487,0,1,0,.006.969C133.007,3176.486,133.312,3176.48,133.617,3176.48Zm2.935,9.272c.305,0,.61.006.915,0a.488.488,0,1,0,.009-.97q-.915-.011-1.831,0a.488.488,0,1,0-.009.97C135.943,3185.757,136.248,3185.752,136.553,3185.752Zm-9.278-6.827c.3,0,.61.009.915,0,.345-.014.552-.208.549-.494s-.208-.473-.558-.478c-.591-.008-1.182-.007-1.773,0-.371,0-.58.188-.577.487s.215.477.586.486C126.7,3178.931,126.989,3178.925,127.275,3178.925Zm-4.876-6.351a.491.491,0,0,0,.483-.467.474.474,0,0,0-.474-.5.486.486,0,0,0-.488.46A.5.5,0,0,0,122.4,3172.574Z" transform="translate(-354.428 -127.074)"/><path class="a" d="M137.2,3223.1c.6,0,1.139,0,1.673,0,.38,0,.583.175.586.478s-.205.481-.575.5c-.067,0-.133,0-.2,0h-22.83a2.156,2.156,0,0,1-.342-.017.488.488,0,0,1-.437-.483.47.47,0,0,1,.481-.468c.524-.014,1.049-.007,1.573-.009h.14l.076-.088c-.067-.031-.155-.044-.2-.1a.469.469,0,0,1,.3-.778,2.1,2.1,0,0,1,.314-.014h19.026a.64.64,0,0,1,.282.016c.149.081.347.174.4.309s-.05.33-.1.495C137.349,3222.989,137.286,3223.018,137.2,3223.1Z" transform="translate(-351.481 -153.679)"/><path class="a" d="M110.807,3225.1a2.35,2.35,0,0,1-.256,0,.442.442,0,0,1-.417-.432.422.422,0,0,1,.343-.489,3.052,3.052,0,0,1,.706-.057.426.426,0,0,1,.416.429.432.432,0,0,1-.315.483,3.472,3.472,0,0,1-.474.083Z" transform="translate(-349 -154.687)"/><path class="a" d="M147.409,3189.8a1.419,1.419,0,0,1-2.678,0Z" transform="translate(-366.382 -137.443)"/><path class="a" d="M129.016,3211.36h2.678a1.348,1.348,0,0,1-1.24.961A1.441,1.441,0,0,1,129.016,3211.36Z" transform="translate(-358.487 -148.275)"/><path class="a" d="M148.452,3209.409h1.912v.94h-1.912Z" transform="translate(-368.251 -147.295)"/><path class="a" d="M129.772,3194.652h-1.908v-.941h1.908Z" transform="translate(-357.908 -139.409)"/><path class="a" d="M147.454,3176.014v-.93h1.918v.93Z" transform="translate(-367.75 -130.051)"/><path class="a" d="M139.968,3202.55l-.585-.98h1.172Z" transform="translate(-363.695 -143.357)"/><path class="a" d="M131.14,3179.993l-.591-.979h1.173Z" transform="translate(-359.257 -132.025)"/></g></svg>